<?xml version="1.0" encoding="utf-8"?>
<!-- Generator: Adobe Illustrator 25.3.1, SVG Export Plug-In . SVG Version: 6.00 Build 0)  -->
<svg version="1.1" id="Layer_1" xmlns="http://www.w3.org/2000/svg" xmlns:xlink="http://www.w3.org/1999/xlink" x="0px" y="0px"
	 viewBox="0 0 2062 2068" style="enable-background:new 0 0 2062 2068;" xml:space="preserve">
<style type="text/css">
	.st0{fill:#004AAD;}
	.st1{fill:#99D420;}
	.st2{fill:#FFFFFF;}
</style>
<rect class="st0" width="2062" height="2068"/>
<path class="st1" d="M1025.3,1197.3c-68.4,0-197.8-10.8-197.8-51.6s129.4-51.6,197.8-51.6c68.4,0,197.8,10.8,197.8,51.6
	S1093.8,1197.3,1025.3,1197.3z M1025.3,1111c-117,0-180.9,22.9-180.9,34.6s63.8,34.6,180.9,34.6s180.9-22.9,180.9-34.6
	S1142.4,1111,1025.3,1111L1025.3,1111z"/>
<path class="st1" d="M1080,1155.4c-1.7-84.3-2.7-142.9-2.4-144.2c5.5-20.6,70.6-23.6,107-40.4s47.9-75.8,8.4-91.4
	s-125.8-7.2-142.9,56.8c-1.9,7.2-1.8,98.1-0.7,219.3H1080z"/>
<path class="st1" d="M1021.4,1155.4c-2.2-151.6-2.3-351.5-1.8-353.2c7.2-24.3,92.4-27.9,140.1-47.7s62.6-89.5,11-107.9
	s-164.7-8.6-187,67c-2.7,8.9-3.9,254.2-2.7,441.8L1021.4,1155.4z"/>
<path class="st2" d="M484.7,1425.4h-26.1v-122.8h-17.3v-22.8h16.5v-4.4c0-14.9,4.1-26.1,12.4-33.7s20.7-11.3,37.2-11.3v24.2h-2.2
	c-7.8,0-13.3,1.8-16.7,5.3c-3.4,3.5-5,9.4-5,17.7v2.1h24v22.8h-22.8V1425.4z"/>
<path class="st2" d="M518.1,1352.7c-0.1-9.9,1.7-19.7,5.2-28.9c3.5-9,8.7-17.2,15.4-24.2c7-7.6,15.4-13.8,24.8-18.1
	c8.9-4.2,18.7-6.3,28.6-6.3c20.3-0.3,39.9,7.8,54,22.5c7,7.1,12.6,15.5,16.5,24.8c3.8,9,5.8,18.7,5.8,28.4c0,10-1.8,19.8-5.4,29.1
	c-7.1,19.1-21.5,34.6-40,43.2c-9.2,4.2-19.3,6.3-29.5,6.3c-10.1,0.1-20.2-1.9-29.5-5.8c-9.2-3.9-17.4-9.7-24.2-17
	c-6.9-7.2-12.3-15.7-16-25C520.1,1372.5,518.1,1362.7,518.1,1352.7z M545.3,1352.5c0,14.6,4.6,26.7,13.8,36.4
	c9.2,9.7,20.7,14.6,34.5,14.6c13.5,0,24.8-4.9,34-14.6s13.7-21.9,13.7-36.6c0-14.7-4.6-26.9-13.7-36.5c-9.1-9.6-20.5-14.4-34.2-14.4
	c-13.6,0-25,4.9-34.2,14.6C549.9,1325.6,545.3,1337.8,545.3,1352.5z"/>
<path class="st2" d="M717.3,1425.4h-26.2v-145.6h24.6v16.8c4.3-6.4,9.3-11.2,14.9-14.4c6-3.2,12.7-4.9,19.5-4.8v27.4
	c-11.7,0.9-20.1,4.4-25.2,10.4s-7.6,15.8-7.6,29.2V1425.4z"/>
<path class="st2" d="M788.7,1362.2c2.2,12.2,7.7,22,16.5,29.6c8.8,7.5,19.2,11.3,31.3,11.3c16.9,0.3,32.6-8.9,40.6-23.8h29.5
	c-6.7,16.1-16.1,28.5-28.1,37.1s-26,12.8-42,12.8c-10.1,0.1-20.2-1.8-29.5-5.7c-9.2-4-17.4-9.8-24.2-17.1c-6.9-7.2-12.3-15.7-16-25
	c-3.8-9.2-5.7-19.1-5.8-29c-0.1-9.8,1.7-19.6,5.2-28.7c3.6-9,8.8-17.3,15.4-24.3c13.7-15.6,33.5-24.3,54.3-24
	c12.5-0.1,24.7,3,35.7,8.9c11,6,20.3,14.6,27.2,25c4.3,6.7,7.4,14.1,9.4,21.8c2.1,8.9,3.1,18,3,27.1v4.1L788.7,1362.2z
	 M882.5,1338.7c-3.3-12-8.9-21.3-16.9-27.8s-17.7-9.8-28.8-9.8c-11.5,0-21.4,3.4-29.8,10.1c-8.4,6.8-14.2,15.9-17.4,27.6
	L882.5,1338.7z"/>
<path class="st2" d="M967.3,1425.4h-26.1v-122.8h-17.3v-22.8h16.5v-4.4c0-14.9,4.1-26.1,12.4-33.7s20.7-11.3,37.2-11.3v24.2h-2.2
	c-7.8,0-13.3,1.8-16.7,5.3c-3.4,3.5-5,9.4-5,17.7v2.1h24v22.8h-22.8V1425.4z"/>
<path class="st2" d="M1035.2,1262.7h-25.9v-30h25.9V1262.7z M1009.3,1425.4v-145.6h25.9v145.6H1009.3z"/>
<path class="st2" d="M1092.7,1425.4h-26.2v-145.6h25.2v16.5c9.7-12.5,24.8-19.5,40.6-18.9c19.1,0,33.7,5.6,43.9,16.8
	c10.2,11.2,15.3,27.3,15.3,48.2v83h-26.3v-77.3c0-15.4-2.9-26.9-8.6-34.3c-5.7-7.5-14.6-11.2-26.6-11.2c-13.1,0-22.5,4.4-28.4,13.2
	s-8.8,23.3-8.8,43.5L1092.7,1425.4z"/>
<path class="st2" d="M1339.8,1425.4v-17.9c-6.3,6.7-14,12.1-22.4,15.8c-8.3,3.6-17.3,5.4-26.4,5.4c-21.9,0-40.1-7.3-54.5-21.9
	s-21.7-32.9-21.7-54.9c-0.1-10,1.8-19.8,5.4-29.1c3.5-9,8.8-17.2,15.5-24.2c6.7-7.3,14.9-13.1,24-17c8.7-3.7,18.6-5.5,29.7-5.5
	c9.4-0.1,18.8,1.7,27.5,5.3c8.7,3.7,16.6,9.2,23.2,16v-64.7h26.2v192.7L1339.8,1425.4z M1241.8,1351.7c0,14.7,4.9,27.1,14.6,37
	s21.7,14.9,35.8,15c12.9,0,24.2-5,34.1-15c9.8-10,14.8-21.7,14.8-35.1c0.2-13.7-5-26.9-14.6-36.7c-9.7-10.2-21.3-15.3-34.7-15.3
	c-13.3-0.2-26,5.1-35.3,14.6C1246.7,1325.8,1241.8,1337.6,1241.8,1351.7z"/>
<path class="st2" d="M1416.1,1362.2c2.2,12.2,7.7,22,16.5,29.6s19.2,11.3,31.3,11.3c16.9,0.2,32.6-8.9,40.6-23.8h29.5
	c-6.7,16.1-16.1,28.5-28.1,37.1s-26,12.8-42,12.8c-10.1,0.1-20.2-1.8-29.5-5.7c-9.2-4-17.4-9.8-24.2-17.1
	c-6.9-7.2-12.3-15.7-15.9-25c-3.8-9.2-5.7-19.1-5.8-29c-0.1-9.8,1.7-19.6,5.2-28.7c3.5-9,8.8-17.3,15.4-24.3
	c13.7-15.6,33.5-24.3,54.3-24c12.5-0.1,24.7,3,35.7,8.9c11,6,20.3,14.6,27.2,25c4.3,6.7,7.5,14.1,9.4,21.8c2.1,8.9,3.1,18,3,27.1
	v4.1L1416.1,1362.2z M1510,1338.7c-3.3-12-8.9-21.3-17-27.8s-17.7-9.9-28.8-9.9c-11.5,0-21.4,3.4-29.8,10.1
	c-8.4,6.8-14.2,15.9-17.4,27.6H1510z"/>
<path class="st2" d="M1587.9,1425.4h-26.2v-145.6h24.6v16.8c4.3-6.4,9.3-11.2,14.9-14.4c6-3.2,12.7-4.9,19.5-4.8v27.4
	c-11.7,0.9-20.1,4.4-25.2,10.4c-5.1,6-7.6,15.8-7.6,29.2L1587.9,1425.4z"/>
</svg>
